<svg width="30" height="30" viewBox="0 0 30 30" fill="none" xmlns="http://www.w3.org/2000/svg">
<path d="M21 2.49988H17.75C13.75 2.49988 11.25 4.99988 11.25 8.99988V14.0624H19.0625C19.575 14.0624 20 14.4874 20 14.9999C20 15.5124 19.575 15.9374 19.0625 15.9374H11.25V20.9999C11.25 24.9999 13.75 27.4999 17.75 27.4999H20.9875C24.9875 27.4999 27.4875 24.9999 27.4875 20.9999V8.99988C27.5 4.99988 25 2.49988 21 2.49988Z" fill="white"/>
<path d="M5.70029 14.0624L8.28779 11.4749C8.47529 11.2874 8.56279 11.0499 8.56279 10.8124C8.56279 10.5749 8.47529 10.3249 8.28779 10.1499C7.92529 9.78743 7.32529 9.78743 6.96279 10.1499L2.77529 14.3374C2.41279 14.6999 2.41279 15.2999 2.77529 15.6624L6.96279 19.8499C7.32529 20.2124 7.92529 20.2124 8.28779 19.8499C8.65029 19.4874 8.65029 18.8874 8.28779 18.5249L5.70029 15.9374H11.2503V14.0624H5.70029Z" fill="white"/>
</svg>
