<svg width="0" height="0" class="hidden">
  <symbol xmlns="http://www.w3.org/2000/svg" xmlns:xlink="http://www.w3.org/1999/xlink" version="1.1" id="exclamation" x="0px" y="0px" xml:space="preserve" viewBox="0 0 512 512">
    <g>
      <path d="M256,0C114.615,0,0,114.615,0,256s114.615,256,256,256s256-114.615,256-256C511.847,114.678,397.322,0.153,256,0z M256,448   c-106.039,0-192-85.961-192-192S149.961,64,256,64s192,85.961,192,192C447.882,361.99,361.99,447.882,256,448z"></path>
      <path d="M256,321.941c17.673,0,32-14.327,32-32V140.608c0-17.673-14.327-32-32-32s-32,14.327-32,32v149.333   C224,307.614,238.327,321.941,256,321.941z"></path>
      <circle cx="256.107" cy="373.333" r="32"></circle>
    </g>
  </symbol>
  <symbol xmlns="http://www.w3.org/2000/svg" id="picture" viewBox="0 0 24 24">
    <path d="M19,0H5A5.006,5.006,0,0,0,0,5V19a5.006,5.006,0,0,0,5,5H19a5.006,5.006,0,0,0,5-5V5A5.006,5.006,0,0,0,19,0ZM5,2H19a3,3,0,0,1,3,3V19a2.951,2.951,0,0,1-.3,1.285l-9.163-9.163a5,5,0,0,0-7.072,0L2,14.586V5A3,3,0,0,1,5,2ZM5,22a3,3,0,0,1-3-3V17.414l4.878-4.878a3,3,0,0,1,4.244,0L20.285,21.7A2.951,2.951,0,0,1,19,22Z"></path>
    <path d="M16,10.5A3.5,3.5,0,1,0,12.5,7,3.5,3.5,0,0,0,16,10.5Zm0-5A1.5,1.5,0,1,1,14.5,7,1.5,1.5,0,0,1,16,5.5Z"></path>
  </symbol>
  <symbol xmlns="http://www.w3.org/2000/svg" id="comment-smile" viewBox="0 0 24 24">
    <path d="m16.713,13.804c.384.393.381,1.02-.009,1.406-.074.073-1.84,1.79-4.704,1.79s-4.63-1.716-4.704-1.79c-.392-.389-.396-1.021-.007-1.414.39-.392,1.021-.396,1.415-.007.046.045,1.28,1.21,3.296,1.21s3.25-1.166,3.302-1.215c.396-.382,1.028-.374,1.411.02Zm-8.213-2.804c.828,0,1.5-.672,1.5-1.5s-.672-1.5-1.5-1.5-1.5.672-1.5,1.5.672,1.5,1.5,1.5Zm7-3c-.828,0-1.5.672-1.5,1.5s.672,1.5,1.5,1.5,1.5-.672,1.5-1.5-.672-1.5-1.5-1.5Zm8.5,4.34v6.66c0,2.757-2.243,5-5,5h-5.917C6.082,24,.471,19.208.029,12.854c-.24-3.476,1.027-6.878,3.479-9.333C5.962,1.065,9.371-.205,12.836.029c6.261.425,11.164,5.833,11.164,12.312Zm-2,0c0-5.431-4.085-9.962-9.299-10.316-.229-.016-.458-.023-.687-.023-2.656,0-5.209,1.048-7.091,2.933-2.043,2.046-3.1,4.883-2.898,7.782.372,5.38,5.023,9.285,11.058,9.285h5.917c1.654,0,3-1.346,3-3v-6.66Z"></path>
  </symbol>
  <symbol xmlns="http://www.w3.org/2000/svg" id="user" viewBox="0 0 24 24">
    <path d="M16.043,14H7.957A4.963,4.963,0,0,0,3,18.957V24H21V18.957A4.963,4.963,0,0,0,16.043,14Z"></path>
    <circle cx="12" cy="6" r="6"></circle>
  </symbol>
  <symbol xmlns="http://www.w3.org/2000/svg" id="profile" viewBox="0 0 24 24">
    <path d="M9,12c3.309,0,6-2.691,6-6S12.309,0,9,0,3,2.691,3,6s2.691,6,6,6Zm7.086,12h-3.086s0-3.086,0-3.086l7.275-7.275c.852-.852,2.234-.852,3.086,0h0c.852,.852,.852,2.234,0,3.086l-7.275,7.275Zm-5.086,0H0v-5c0-2.757,2.243-5,5-5H13c1.145,0,2.189,.403,3.033,1.053l-5.033,5.033v3.914Z"></path>
  </symbol>
  <symbol xmlns="http://www.w3.org/2000/svg" id="edit" viewBox="0 0 24 24">
    <path d="M1.172,19.119A4,4,0,0,0,0,21.947V24H2.053a4,4,0,0,0,2.828-1.172L18.224,9.485,14.515,5.776Z"></path>
    <path d="M23.145.855a2.622,2.622,0,0,0-3.71,0L15.929,4.362l3.709,3.709,3.507-3.506A2.622,2.622,0,0,0,23.145.855Z"></path>
  </symbol>
  <symbol xmlns="http://www.w3.org/2000/svg" xmlns:xlink="http://www.w3.org/1999/xlink" version="1.1" id="cross" x="0px" y="0px" xml:space="preserve" viewBox="0 0 512.021 512.021">
    <g>
      <path d="M301.258,256.01L502.645,54.645c12.501-12.501,12.501-32.769,0-45.269c-12.501-12.501-32.769-12.501-45.269,0l0,0   L256.01,210.762L54.645,9.376c-12.501-12.501-32.769-12.501-45.269,0s-12.501,32.769,0,45.269L210.762,256.01L9.376,457.376   c-12.501,12.501-12.501,32.769,0,45.269s32.769,12.501,45.269,0L256.01,301.258l201.365,201.387   c12.501,12.501,32.769,12.501,45.269,0c12.501-12.501,12.501-32.769,0-45.269L301.258,256.01z"></path>
    </g>
  </symbol>
  <symbol xmlns="http://www.w3.org/2000/svg" id="cross-small" viewBox="0 0 24 24">
    <path d="M14.121,12,18,8.117A1.5,1.5,0,0,0,15.883,6L12,9.879,8.11,5.988A1.5,1.5,0,1,0,5.988,8.11L9.879,12,6,15.882A1.5,1.5,0,1,0,8.118,18L12,14.121,15.878,18A1.5,1.5,0,0,0,18,15.878Z"></path>
  </symbol>
  <symbol xmlns="http://www.w3.org/2000/svg" xmlns:xlink="http://www.w3.org/1999/xlink" version="1.1" id="google" x="0px" y="0px" xml:space="preserve" viewBox="0 0 24 24">
    <g>
      <path d="M12.479,14.265v-3.279h11.049c0.108,0.571,0.164,1.247,0.164,1.979c0,2.46-0.672,5.502-2.84,7.669   C18.744,22.829,16.051,24,12.483,24C5.869,24,0.308,18.613,0.308,12S5.869,0,12.483,0c3.659,0,6.265,1.436,8.223,3.307L18.392,5.62   c-1.404-1.317-3.307-2.341-5.913-2.341C7.65,3.279,3.873,7.171,3.873,12s3.777,8.721,8.606,8.721c3.132,0,4.916-1.258,6.059-2.401   c0.927-0.927,1.537-2.251,1.777-4.059L12.479,14.265z"></path>
    </g>
  </symbol>
  <symbol xmlns="http://www.w3.org/2000/svg" xmlns:xlink="http://www.w3.org/1999/xlink" version="1.1" id="yandex" x="0px" y="0px" xml:space="preserve" viewBox="0 0 24 24">
    <g>
      <path d="M10.096,24v-2.417c0-3.281-0.381-4.904-1.697-7.735L1.993,0h4.432l5.436,11.845c1.593,3.453,2.285,5.249,2.285,9.22V24   H10.096z"></path>
      <polygon points="12.693,11.603 17.748,0 22.007,0 16.882,11.603  "></polygon>
    </g>
  </symbol>
  <symbol xmlns="http://www.w3.org/2000/svg" id="sign-out-alt" viewBox="0 0 24 24">
    <path d="M11.5,16A1.5,1.5,0,0,0,10,17.5v.8A2.7,2.7,0,0,1,7.3,21H5.7A2.7,2.7,0,0,1,3,18.3V5.7A2.7,2.7,0,0,1,5.7,3H7.3A2.7,2.7,0,0,1,10,5.7v.8a1.5,1.5,0,0,0,3,0V5.7A5.706,5.706,0,0,0,7.3,0H5.7A5.706,5.706,0,0,0,0,5.7V18.3A5.706,5.706,0,0,0,5.7,24H7.3A5.706,5.706,0,0,0,13,18.3v-.8A1.5,1.5,0,0,0,11.5,16Z"></path>
    <path d="M22.561,9.525,17.975,4.939a1.5,1.5,0,0,0-2.121,2.122l3.411,3.411L7,10.5a1.5,1.5,0,0,0,0,3H7l12.318-.028-3.467,3.467a1.5,1.5,0,0,0,2.121,2.122l4.586-4.586A3.505,3.505,0,0,0,22.561,9.525Z"></path>
  </symbol>
  <symbol xmlns="http://www.w3.org/2000/svg" id="sign-in-alt" viewBox="0 0 24 24">
    <path d="M18.589,0H5.411A5.371,5.371,0,0,0,0,5.318V7.182a1.5,1.5,0,0,0,3,0V5.318A2.369,2.369,0,0,1,5.411,3H18.589A2.369,2.369,0,0,1,21,5.318V18.682A2.369,2.369,0,0,1,18.589,21H5.411A2.369,2.369,0,0,1,3,18.682V16.818a1.5,1.5,0,1,0-3,0v1.864A5.371,5.371,0,0,0,5.411,24H18.589A5.371,5.371,0,0,0,24,18.682V5.318A5.371,5.371,0,0,0,18.589,0Z"></path>
    <path d="M3.5,12A1.5,1.5,0,0,0,5,13.5H5l9.975-.027-3.466,3.466a1.5,1.5,0,0,0,2.121,2.122l4.586-4.586a3.5,3.5,0,0,0,0-4.95L13.634,4.939a1.5,1.5,0,1,0-2.121,2.122l3.413,3.412L5,10.5A1.5,1.5,0,0,0,3.5,12Z"></path>
  </symbol>
  <symbol xmlns="http://www.w3.org/2000/svg" xmlns:xlink="http://www.w3.org/1999/xlink" version="1.1" id="search" x="0px" y="0px" xml:space="preserve" viewBox="0 0 513.749 513.749">
    <g>
      <path d="M504.352,459.061l-99.435-99.477c74.402-99.427,54.115-240.344-45.312-314.746S119.261-9.277,44.859,90.15   S-9.256,330.494,90.171,404.896c79.868,59.766,189.565,59.766,269.434,0l99.477,99.477c12.501,12.501,32.769,12.501,45.269,0   c12.501-12.501,12.501-32.769,0-45.269L504.352,459.061z M225.717,385.696c-88.366,0-160-71.634-160-160s71.634-160,160-160   s160,71.634,160,160C385.623,314.022,314.044,385.602,225.717,385.696z"></path>
    </g>
  </symbol>
  <symbol xmlns="http://www.w3.org/2000/svg" xmlns:xlink="http://www.w3.org/1999/xlink" version="1.1" id="menu-burger" x="0px" y="0px" xml:space="preserve" viewBox="0 0 512 512">
    <g>
      <path d="M480,224H32c-17.673,0-32,14.327-32,32s14.327,32,32,32h448c17.673,0,32-14.327,32-32S497.673,224,480,224z"></path>
      <path d="M32,138.667h448c17.673,0,32-14.327,32-32s-14.327-32-32-32H32c-17.673,0-32,14.327-32,32S14.327,138.667,32,138.667z"></path>
      <path d="M480,373.333H32c-17.673,0-32,14.327-32,32s14.327,32,32,32h448c17.673,0,32-14.327,32-32S497.673,373.333,480,373.333z"></path>
    </g>
  </symbol>\
  <symbol version="1.1" xmlns="http://www.w3.org/2000/svg" viewBox="0 0 32 32" id="arrow-left2">
    <title>arrow-left2</title>
    <path d="M12.586 27.414l-10-10c-0.781-0.781-0.781-2.047 0-2.828l10-10c0.781-0.781 2.047-0.781 2.828 0s0.781 2.047 0 2.828l-6.586 6.586h19.172c1.105 0 2 0.895 2 2s-0.895 2-2 2h-19.172l6.586 6.586c0.39 0.39 0.586 0.902 0.586 1.414s-0.195 1.024-0.586 1.414c-0.781 0.781-2.047 0.781-2.828 0z"></path>
  </symbol>
  <symbol version="1.1" xmlns="http://www.w3.org/2000/svg" viewBox="0 0 32 32" id="cross">
    <title>cross</title>
    <path d="M31.708 25.708c-0-0-0-0-0-0l-9.708-9.708 9.708-9.708c0-0 0-0 0-0 0.105-0.105 0.18-0.227 0.229-0.357 0.133-0.356 0.057-0.771-0.229-1.057l-4.586-4.586c-0.286-0.286-0.702-0.361-1.057-0.229-0.13 0.048-0.252 0.124-0.357 0.228 0 0-0 0-0 0l-9.708 9.708-9.708-9.708c-0-0-0-0-0-0-0.105-0.104-0.227-0.18-0.357-0.228-0.356-0.133-0.771-0.057-1.057 0.229l-4.586 4.586c-0.286 0.286-0.361 0.702-0.229 1.057 0.049 0.13 0.124 0.252 0.229 0.357 0 0 0 0 0 0l9.708 9.708-9.708 9.708c-0 0-0 0-0 0-0.104 0.105-0.18 0.227-0.229 0.357-0.133 0.355-0.057 0.771 0.229 1.057l4.586 4.586c0.286 0.286 0.702 0.361 1.057 0.229 0.13-0.049 0.252-0.124 0.357-0.229 0-0 0-0 0-0l9.708-9.708 9.708 9.708c0 0 0 0 0 0 0.105 0.105 0.227 0.18 0.357 0.229 0.356 0.133 0.771 0.057 1.057-0.229l4.586-4.586c0.286-0.286 0.362-0.702 0.229-1.057-0.049-0.13-0.124-0.252-0.229-0.357z"></path>
  </symbol>
  <symbol version="1.1" xmlns="http://www.w3.org/2000/svg" viewBox="0 0 32 32" id="enter">
    <title>enter</title>
    <path d="M12 16h-10v-4h10v-4l6 6-6 6zM32 0v26l-12 6v-6h-12v-8h2v6h10v-18l8-4h-18v8h-2v-10z"></path>
  </symbol>
  <symbol version="1.1" xmlns="http://www.w3.org/2000/svg" viewBox="0 0 32 32" id="exit">
    <title>exit</title>
    <path d="M24 20v-4h-10v-4h10v-4l6 6zM22 18v8h-10v6l-12-6v-26h22v10h-2v-8h-16l8 4v18h8v-6z"></path>
  </symbol>
  <symbol version="1.1" xmlns="http://www.w3.org/2000/svg" viewBox="0 0 32 32" id="eye">
    <title>eye</title>
    <path d="M16 6c-6.979 0-13.028 4.064-16 10 2.972 5.936 9.021 10 16 10s13.027-4.064 16-10c-2.972-5.936-9.021-10-16-10zM23.889 11.303c1.88 1.199 3.473 2.805 4.67 4.697-1.197 1.891-2.79 3.498-4.67 4.697-2.362 1.507-5.090 2.303-7.889 2.303s-5.527-0.796-7.889-2.303c-1.88-1.199-3.473-2.805-4.67-4.697 1.197-1.891 2.79-3.498 4.67-4.697 0.122-0.078 0.246-0.154 0.371-0.228-0.311 0.854-0.482 1.776-0.482 2.737 0 4.418 3.582 8 8 8s8-3.582 8-8c0-0.962-0.17-1.883-0.482-2.737 0.124 0.074 0.248 0.15 0.371 0.228v0zM16 13c0 1.657-1.343 3-3 3s-3-1.343-3-3 1.343-3 3-3 3 1.343 3 3z"></path>
  </symbol>
  <symbol version="1.1" xmlns="http://www.w3.org/2000/svg" viewBox="0 0 32 32" id="eye-blocked">
    <title>eye-blocked</title>
    <path d="M29.561 0.439c-0.586-0.586-1.535-0.586-2.121 0l-6.318 6.318c-1.623-0.492-3.342-0.757-5.122-0.757-6.979 0-13.028 4.064-16 10 1.285 2.566 3.145 4.782 5.407 6.472l-4.968 4.968c-0.586 0.586-0.586 1.535 0 2.121 0.293 0.293 0.677 0.439 1.061 0.439s0.768-0.146 1.061-0.439l27-27c0.586-0.586 0.586-1.536 0-2.121zM13 10c1.32 0 2.44 0.853 2.841 2.037l-3.804 3.804c-1.184-0.401-2.037-1.521-2.037-2.841 0-1.657 1.343-3 3-3zM3.441 16c1.197-1.891 2.79-3.498 4.67-4.697 0.122-0.078 0.246-0.154 0.371-0.228-0.311 0.854-0.482 1.776-0.482 2.737 0 1.715 0.54 3.304 1.459 4.607l-1.904 1.904c-1.639-1.151-3.038-2.621-4.114-4.323z"></path>
    <path d="M24 13.813c0-0.849-0.133-1.667-0.378-2.434l-10.056 10.056c0.768 0.245 1.586 0.378 2.435 0.378 4.418 0 8-3.582 8-8z"></path>
    <path d="M25.938 9.062l-2.168 2.168c0.040 0.025 0.079 0.049 0.118 0.074 1.88 1.199 3.473 2.805 4.67 4.697-1.197 1.891-2.79 3.498-4.67 4.697-2.362 1.507-5.090 2.303-7.889 2.303-1.208 0-2.403-0.149-3.561-0.439l-2.403 2.403c1.866 0.671 3.873 1.036 5.964 1.036 6.978 0 13.027-4.064 16-10-1.407-2.81-3.504-5.2-6.062-6.938z"></path>
  </symbol>
  <symbol version="1.1" xmlns="http://www.w3.org/2000/svg" viewBox="0 0 32 32" id="file-picture">
    <title>file-picture</title>
    <path d="M26 28h-20v-4l6-10 8.219 10 5.781-4v8z"></path>
    <path d="M26 15c0 1.657-1.343 3-3 3s-3-1.343-3-3 1.343-3 3-3c1.657 0 3 1.343 3 3z"></path>
    <path d="M28.681 7.159c-0.694-0.947-1.662-2.053-2.724-3.116s-2.169-2.030-3.116-2.724c-1.612-1.182-2.393-1.319-2.841-1.319h-15.5c-1.378 0-2.5 1.121-2.5 2.5v27c0 1.378 1.122 2.5 2.5 2.5h23c1.378 0 2.5-1.122 2.5-2.5v-19.5c0-0.448-0.137-1.23-1.319-2.841zM24.543 5.457c0.959 0.959 1.712 1.825 2.268 2.543h-4.811v-4.811c0.718 0.556 1.584 1.309 2.543 2.268zM28 29.5c0 0.271-0.229 0.5-0.5 0.5h-23c-0.271 0-0.5-0.229-0.5-0.5v-27c0-0.271 0.229-0.5 0.5-0.5 0 0 15.499-0 15.5 0v7c0 0.552 0.448 1 1 1h7v19.5z"></path>
  </symbol>
  <symbol version="1.1" xmlns="http://www.w3.org/2000/svg" viewBox="0 0 32 32" id="hipster">
    <title>hipster</title>
    <path d="M16 32c8.837 0 16-7.163 16-16s-7.163-16-16-16-16 7.163-16 16 7.163 16 16 16zM16 3c7.18 0 13 5.82 13 13s-5.82 13-13 13-13-5.82-13-13 5.82-13 13-13zM8 10c0-1.105 0.895-2 2-2s2 0.895 2 2-0.895 2-2 2-2-0.895-2-2zM20 10c0-1.105 0.895-2 2-2s2 0.895 2 2-0.895 2-2 2-2-0.895-2-2z"></path>
    <path d="M21.121 16.879c-1.172-1.172-3.071-1.172-4.243 0s-1.172 3.071 0 4.243c0.038 0.038 0.076 0.074 0.115 0.109 2.704 2.453 9.006-0.058 9.006-3.23-1.938 1.25-3.452 0.306-4.879-1.121z"></path>
    <path d="M10.879 16.879c1.172-1.172 3.071-1.172 4.243 0s1.172 3.071 0 4.243c-0.038 0.038-0.076 0.074-0.115 0.109-2.704 2.453-9.006-0.058-9.006-3.23 1.938 1.25 3.452 0.306 4.879-1.121z"></path>
  </symbol>
  <symbol version="1.1" xmlns="http://www.w3.org/2000/svg" viewBox="0 0 32 32" id="menu">
    <title>menu</title>
    <path d="M2 6h28v6h-28zM2 14h28v6h-28zM2 22h28v6h-28z"></path>
  </symbol>
  <symbol version="1.1" xmlns="http://www.w3.org/2000/svg" viewBox="0 0 32 32" id="notification">
    <title>notification</title>
    <path d="M16 3c-3.472 0-6.737 1.352-9.192 3.808s-3.808 5.72-3.808 9.192c0 3.472 1.352 6.737 3.808 9.192s5.72 3.808 9.192 3.808c3.472 0 6.737-1.352 9.192-3.808s3.808-5.72 3.808-9.192c0-3.472-1.352-6.737-3.808-9.192s-5.72-3.808-9.192-3.808zM16 0v0c8.837 0 16 7.163 16 16s-7.163 16-16 16c-8.837 0-16-7.163-16-16s7.163-16 16-16zM14 22h4v4h-4zM14 6h4v12h-4z"></path>
  </symbol>
  <symbol version="1.1" xmlns="http://www.w3.org/2000/svg" viewBox="0 0 32 32" id="pencil">
    <title>pencil</title>
    <path d="M27 0c2.761 0 5 2.239 5 5 0 1.126-0.372 2.164-1 3l-2 2-7-7 2-2c0.836-0.628 1.874-1 3-1zM2 23l-2 9 9-2 18.5-18.5-7-7-18.5 18.5zM22.362 11.362l-14 14-1.724-1.724 14-14 1.724 1.724z"></path>
  </symbol>
  <symbol version="1.1" xmlns="http://www.w3.org/2000/svg" viewBox="0 0 32 32" id="profile">
    <title>profile</title>
    <path d="M27 0h-24c-1.65 0-3 1.35-3 3v26c0 1.65 1.35 3 3 3h24c1.65 0 3-1.35 3-3v-26c0-1.65-1.35-3-3-3zM26 28h-22v-24h22v24zM8 18h14v2h-14zM8 22h14v2h-14zM10 9c0-1.657 1.343-3 3-3s3 1.343 3 3c0 1.657-1.343 3-3 3s-3-1.343-3-3zM15 12h-4c-1.65 0-3 0.9-3 2v2h10v-2c0-1.1-1.35-2-3-2z"></path>
  </symbol>
  <symbol version="1.1" xmlns="http://www.w3.org/2000/svg" viewBox="0 0 32 32" id="search">
    <title>search</title>
    <path d="M31.008 27.231l-7.58-6.447c-0.784-0.705-1.622-1.029-2.299-0.998 1.789-2.096 2.87-4.815 2.87-7.787 0-6.627-5.373-12-12-12s-12 5.373-12 12 5.373 12 12 12c2.972 0 5.691-1.081 7.787-2.87-0.031 0.677 0.293 1.515 0.998 2.299l6.447 7.58c1.104 1.226 2.907 1.33 4.007 0.23s0.997-2.903-0.23-4.007zM12 20c-4.418 0-8-3.582-8-8s3.582-8 8-8 8 3.582 8 8-3.582 8-8 8z"></path>
  </symbol>
  <symbol version="1.0" xmlns="http://www.w3.org/2000/svg" preserveAspectRatio="xMidYMid meet" viewBox="0 0 276.000000 72.000000" id="logo">
    <g transform="translate(0.000000,72.000000) scale(0.100000,-0.100000)" stroke="none">
      <path d="M995 680 c-3 -5 -15 -10 -26 -10 -18 0 -19 -10 -19 -295 0 -254 2
-296 15 -301 8 -4 15 -15 15 -25 0 -13 7 -19 21 -19 15 0 19 -5 15 -15 -4 -13
10 -15 92 -15 91 0 98 1 107 23 9 19 7 24 -20 39 l-30 17 33 11 c54 20 36 30
-49 30 l-82 0 7 283 c6 259 5 280 -9 262 -16 -20 -16 -20 -35 3 -20 25 -26 27
-35 12z"></path>
      <path d="M1805 586 c-5 -2 -22 -7 -36 -10 -21 -5 -28 -13 -32 -42 -4 -21 -3
-42 1 -48 9 -15 9 -8 10 -233 2 -201 2 -202 25 -205 14 -2 23 -11 25 -27 4
-22 6 -23 55 -17 80 11 118 23 169 55 60 38 83 74 83 129 0 36 -5 48 -31 72
-17 15 -38 30 -45 32 -11 4 -11 9 3 24 46 52 61 149 33 204 -23 45 -68 63
-165 67 -47 1 -89 1 -95 -1z m163 -122 c12 -8 22 -25 22 -38 0 -40 -76 -96
-131 -96 -17 0 -19 7 -19 69 0 46 4 71 13 74 27 11 94 6 115 -9z m-4 -224 c15
-5 31 -21 38 -34 22 -50 -45 -106 -127 -106 l-35 0 0 65 c0 59 2 67 23 75 30
12 70 12 101 0z"></path>
      <path d="M635 565 c-78 -28 -107 -81 -125 -229 -16 -136 17 -274 75 -312 18
-12 47 -18 88 -18 84 -1 158 38 187 99 26 54 40 175 30 264 -9 80 -46 166 -72
166 -9 0 -20 3 -24 7 -4 4 -18 5 -30 2 -20 -5 -24 -2 -24 15 0 17 -6 21 -32
21 -18 -1 -51 -7 -73 -15z m105 -105 c42 -23 63 -117 49 -219 -13 -88 -33
-128 -71 -136 -76 -17 -111 35 -111 160 1 155 56 236 133 195z"></path>
      <path d="M47 559 c-15 -9 -17 -34 -17 -274 0 -237 6 -305 24 -260 8 21 29 19
44 -5 23 -38 32 -10 32 103 0 116 6 157 21 157 6 0 45 -55 88 -122 113 -176
102 -164 133 -144 22 15 27 15 38 1 7 -8 16 -12 21 -9 12 7 12 554 -1 554 -5
0 -14 -9 -20 -20 -14 -26 -36 -26 -50 0 -23 42 -30 5 -30 -151 0 -120 -3 -160
-12 -157 -6 2 -50 74 -98 159 -67 121 -90 154 -106 154 -12 0 -27 5 -35 12
-10 8 -20 8 -32 2z"></path>
      <path d="M1426 561 c-3 -5 -14 -7 -24 -4 -15 4 -22 -18 -54 -174 -69 -332 -72
-352 -66 -358 4 -4 15 -2 25 3 13 8 22 7 34 -4 15 -13 18 -9 33 46 15 51 20
60 40 60 13 0 50 3 83 6 l59 6 15 -53 c10 -34 20 -53 28 -51 7 1 18 -2 25 -7
7 -6 22 -7 35 -4 17 4 21 11 17 27 -2 11 -23 125 -46 251 -23 127 -43 237 -45
245 -7 23 -63 22 -70 -1 -8 -24 -17 -24 -40 1 -19 21 -40 26 -49 11z m93 -226
c11 -49 18 -92 15 -94 -2 -3 -31 -7 -63 -9 l-59 -4 21 100 c14 74 24 102 36
105 25 6 28 -2 50 -98z"></path>
      <path d="M2233 563 c-55 -3 -73 -8 -78 -21 -4 -10 2 -22 17 -33 21 -16 21 -18
5 -24 -15 -7 -17 -27 -17 -226 l0 -219 25 0 c18 0 25 -5 25 -19 0 -18 6 -19
98 -14 53 3 98 7 100 8 1 1 0 21 -4 44 l-7 41 -63 0 -64 0 0 69 0 68 38 7 c20
3 49 6 65 6 17 0 27 5 27 15 0 8 -5 15 -11 15 -7 0 -9 10 -5 25 6 25 5 25 -54
25 l-60 0 0 65 0 64 60 7 c63 7 87 21 51 31 -26 7 -27 15 -1 31 11 7 20 19 20
27 0 16 1 16 -167 8z"></path>
      <path d="M2583 541 c-22 -24 -24 -25 -37 -8 -8 10 -20 15 -30 11 -14 -5 -16
-34 -16 -255 l0 -249 25 0 c18 0 25 -5 25 -20 0 -18 7 -20 58 -20 82 0 130 10
137 28 4 10 -1 22 -11 29 -14 10 -15 15 -4 28 11 13 5 15 -53 15 -36 0 -68 3
-70 7 -2 5 -1 107 3 228 3 121 4 223 1 226 -3 4 -16 -5 -28 -20z"></path>
    </g>
  </symbol>
</svg>
