<svg width="0" height="0" class="hidden">
  <symbol
    id="add-reaction"
    viewBox="0 0 24 24"
    xmlns="http://www.w3.org/2000/svg"
  >
    <path
      d="M7 9.5C7 8.67 7.67 8 8.5 8s1.5.67 1.5 1.5S9.33 11 8.5 11S7 10.33 7 9.5zm5 8c2.33 0 4.31-1.46 5.11-3.5H6.89c.8 2.04 2.78 3.5 5.11 3.5zm3.5-6.5c.83 0 1.5-.67 1.5-1.5S16.33 8 15.5 8S14 8.67 14 9.5s.67 1.5 1.5 1.5zM22 1h-2v2h-2v2h2v2h2V5h2V3h-2V1zm-2 11c0 4.42-3.58 8-8 8s-8-3.58-8-8s3.58-8 8-8c1.46 0 2.82.4 4 1.08V2.84A9.929 9.929 0 0 0 11.99 2C6.47 2 2 6.48 2 12s4.47 10 9.99 10C17.52 22 22 17.52 22 12c0-1.05-.17-2.05-.47-3H19.4c.38.93.6 1.94.6 3z"
    />
  </symbol>

  <symbol
    id="edit"
    viewBox="0 0 24 24"
    xmlns="http://www.w3.org/2000/svg"
  >
    <path
      d="M1.172,19.119A4,4,0,0,0,0,21.947V24H2.053a4,4,0,0,0,2.828-1.172L18.224,9.485,14.515,5.776Z"
    />
    <path
      d="M23.145.855a2.622,2.622,0,0,0-3.71,0L15.929,4.362l3.709,3.709,3.507-3.506A2.622,2.622,0,0,0,23.145.855Z"
    />
  </symbol>

  <symbol
    id="cross"
    viewBox="0 0 512.021 512.021"
    xmlns="http://www.w3.org/2000/svg"
  >
    <path
      d="M301.258,256.01L502.645,54.645c12.501-12.501,12.501-32.769,0-45.269c-12.501-12.501-32.769-12.501-45.269,0l0,0   L256.01,210.762L54.645,9.376c-12.501-12.501-32.769-12.501-45.269,0s-12.501,32.769,0,45.269L210.762,256.01L9.376,457.376   c-12.501,12.501-12.501,32.769,0,45.269s32.769,12.501,45.269,0L256.01,301.258l201.365,201.387   c12.501,12.501,32.769,12.501,45.269,0c12.501-12.501,12.501-32.769,0-45.269L301.258,256.01z"
    />
  </symbol>

  <symbol
    id="github"
    viewBox="0 0 98 96"
    xmlns="http://www.w3.org/2000/svg"
  >
    <path
      fill-rule="evenodd"
      clip-rule="evenodd"
      d="M48.854 0C21.839 0 0 22 0 49.217c0 21.756 13.993 40.172 33.405 46.69 2.427.49 3.316-1.059 3.316-2.362 0-1.141-.08-5.052-.08-9.127-13.59 2.934-16.42-5.867-16.42-5.867-2.184-5.704-5.42-7.17-5.42-7.17-4.448-3.015.324-3.015.324-3.015 4.934.326 7.523 5.052 7.523 5.052 4.367 7.496 11.404 5.378 14.235 4.074.404-3.178 1.699-5.378 3.074-6.6-10.839-1.141-22.243-5.378-22.243-24.283 0-5.378 1.94-9.778 5.014-13.2-.485-1.222-2.184-6.275.486-13.038 0 0 4.125-1.304 13.426 5.052a46.97 46.97 0 0 1 12.214-1.63c4.125 0 8.33.571 12.213 1.63 9.302-6.356 13.427-5.052 13.427-5.052 2.67 6.763.97 11.816.485 13.038 3.155 3.422 5.015 7.822 5.015 13.2 0 18.905-11.404 23.06-22.324 24.283 1.78 1.548 3.316 4.481 3.316 9.126 0 6.6-.08 11.897-.08 13.526 0 1.304.89 2.853 3.316 2.364 19.412-6.52 33.405-24.935 33.405-46.691C97.707 22 75.788 0 48.854 0z"
    />
  </symbol>

  <symbol
    id="telegram"
    viewBox="0 0 32 32"
    xmlns="http://www.w3.org/2000/svg"
  >
    <path
      d="m16 .5c-8.563 0-15.5 6.938-15.5 15.5s6.938 15.5 15.5 15.5c8.563 0 15.5-6.938 15.5-15.5s-6.938-15.5-15.5-15.5zm7.613 10.619-2.544 11.988c-.188.85-.694 1.056-1.4.656l-3.875-2.856-1.869 1.8c-.206.206-.381.381-.781.381l.275-3.944 7.181-6.488c.313-.275-.069-.431-.482-.156l-8.875 5.587-3.825-1.194c-.831-.262-.85-.831.175-1.231l14.944-5.763c.694-.25 1.3.169 1.075 1.219z"
    />
  </symbol>

  <symbol
    id="google"
    viewBox="0 0 24 24"
    xmlns="http://www.w3.org/2000/svg"
  >
    <path
      d="M12.479,14.265v-3.279h11.049c0.108,0.571,0.164,1.247,0.164,1.979c0,2.46-0.672,5.502-2.84,7.669   C18.744,22.829,16.051,24,12.483,24C5.869,24,0.308,18.613,0.308,12S5.869,0,12.483,0c3.659,0,6.265,1.436,8.223,3.307L18.392,5.62   c-1.404-1.317-3.307-2.341-5.913-2.341C7.65,3.279,3.873,7.171,3.873,12s3.777,8.721,8.606,8.721c3.132,0,4.916-1.258,6.059-2.401   c0.927-0.927,1.537-2.251,1.777-4.059L12.479,14.265z"
    />
  </symbol>

  <symbol
    id="yandex"
    viewBox="0 0 24 24"
    xmlns="http://www.w3.org/2000/svg"
  >
    <path
      d="M10.096,24v-2.417c0-3.281-0.381-4.904-1.697-7.735L1.993,0h4.432l5.436,11.845c1.593,3.453,2.285,5.249,2.285,9.22V24   H10.096z"
    />
    <polygon
      points="12.693,11.603 17.748,0 22.007,0 16.882,11.603  "
    />
  </symbol>

  <symbol
    id="menu-burger"
    viewBox="0 0 512 512"
    xmlns="http://www.w3.org/2000/svg"
  >
    <path d="M480,224H32c-17.673,0-32,14.327-32,32s14.327,32,32,32h448c17.673,0,32-14.327,32-32S497.673,224,480,224z" />
    <path d="M32,138.667h448c17.673,0,32-14.327,32-32s-14.327-32-32-32H32c-17.673,0-32,14.327-32,32S14.327,138.667,32,138.667z" />
    <path d="M480,373.333H32c-17.673,0-32,14.327-32,32s14.327,32,32,32h448c17.673,0,32-14.327,32-32S497.673,373.333,480,373.333z" />
  </symbol>

  <symbol
    id="arrow-left2"
    viewBox="0 0 32 32"
    xmlns="http://www.w3.org/2000/svg"
  >
    <path
      d="M12.586 27.414l-10-10c-0.781-0.781-0.781-2.047 0-2.828l10-10c0.781-0.781 2.047-0.781 2.828 0s0.781 2.047 0 2.828l-6.586 6.586h19.172c1.105 0 2 0.895 2 2s-0.895 2-2 2h-19.172l6.586 6.586c0.39 0.39 0.586 0.902 0.586 1.414s-0.195 1.024-0.586 1.414c-0.781 0.781-2.047 0.781-2.828 0z"/>
  </symbol>

  <symbol
    id="cross"
    viewBox="0 0 32 32"
    xmlns="http://www.w3.org/2000/svg"
  >
    <path
      d="M31.708 25.708c-0-0-0-0-0-0l-9.708-9.708 9.708-9.708c0-0 0-0 0-0 0.105-0.105 0.18-0.227 0.229-0.357 0.133-0.356 0.057-0.771-0.229-1.057l-4.586-4.586c-0.286-0.286-0.702-0.361-1.057-0.229-0.13 0.048-0.252 0.124-0.357 0.228 0 0-0 0-0 0l-9.708 9.708-9.708-9.708c-0-0-0-0-0-0-0.105-0.104-0.227-0.18-0.357-0.228-0.356-0.133-0.771-0.057-1.057 0.229l-4.586 4.586c-0.286 0.286-0.361 0.702-0.229 1.057 0.049 0.13 0.124 0.252 0.229 0.357 0 0 0 0 0 0l9.708 9.708-9.708 9.708c-0 0-0 0-0 0-0.104 0.105-0.18 0.227-0.229 0.357-0.133 0.355-0.057 0.771 0.229 1.057l4.586 4.586c0.286 0.286 0.702 0.361 1.057 0.229 0.13-0.049 0.252-0.124 0.357-0.229 0-0 0-0 0-0l9.708-9.708 9.708 9.708c0 0 0 0 0 0 0.105 0.105 0.227 0.18 0.357 0.229 0.356 0.133 0.771 0.057 1.057-0.229l4.586-4.586c0.286-0.286 0.362-0.702 0.229-1.057-0.049-0.13-0.124-0.252-0.229-0.357z"
    />
  </symbol>

  <symbol
    id="eye"
    viewBox="0 0 32 32"
    xmlns="http://www.w3.org/2000/svg"
  >
    <path
      d="M16 6c-6.979 0-13.028 4.064-16 10 2.972 5.936 9.021 10 16 10s13.027-4.064 16-10c-2.972-5.936-9.021-10-16-10zM23.889 11.303c1.88 1.199 3.473 2.805 4.67 4.697-1.197 1.891-2.79 3.498-4.67 4.697-2.362 1.507-5.090 2.303-7.889 2.303s-5.527-0.796-7.889-2.303c-1.88-1.199-3.473-2.805-4.67-4.697 1.197-1.891 2.79-3.498 4.67-4.697 0.122-0.078 0.246-0.154 0.371-0.228-0.311 0.854-0.482 1.776-0.482 2.737 0 4.418 3.582 8 8 8s8-3.582 8-8c0-0.962-0.17-1.883-0.482-2.737 0.124 0.074 0.248 0.15 0.371 0.228v0zM16 13c0 1.657-1.343 3-3 3s-3-1.343-3-3 1.343-3 3-3 3 1.343 3 3z"
    />
  </symbol>

  <symbol
    id="eye-blocked"
    viewBox="0 0 32 32"
    xmlns="http://www.w3.org/2000/svg"
  >
    <path
      d="M29.561 0.439c-0.586-0.586-1.535-0.586-2.121 0l-6.318 6.318c-1.623-0.492-3.342-0.757-5.122-0.757-6.979 0-13.028 4.064-16 10 1.285 2.566 3.145 4.782 5.407 6.472l-4.968 4.968c-0.586 0.586-0.586 1.535 0 2.121 0.293 0.293 0.677 0.439 1.061 0.439s0.768-0.146 1.061-0.439l27-27c0.586-0.586 0.586-1.536 0-2.121zM13 10c1.32 0 2.44 0.853 2.841 2.037l-3.804 3.804c-1.184-0.401-2.037-1.521-2.037-2.841 0-1.657 1.343-3 3-3zM3.441 16c1.197-1.891 2.79-3.498 4.67-4.697 0.122-0.078 0.246-0.154 0.371-0.228-0.311 0.854-0.482 1.776-0.482 2.737 0 1.715 0.54 3.304 1.459 4.607l-1.904 1.904c-1.639-1.151-3.038-2.621-4.114-4.323z"
    />
    <path
      d="M24 13.813c0-0.849-0.133-1.667-0.378-2.434l-10.056 10.056c0.768 0.245 1.586 0.378 2.435 0.378 4.418 0 8-3.582 8-8z"
    />
    <path
      d="M25.938 9.062l-2.168 2.168c0.040 0.025 0.079 0.049 0.118 0.074 1.88 1.199 3.473 2.805 4.67 4.697-1.197 1.891-2.79 3.498-4.67 4.697-2.362 1.507-5.090 2.303-7.889 2.303-1.208 0-2.403-0.149-3.561-0.439l-2.403 2.403c1.866 0.671 3.873 1.036 5.964 1.036 6.978 0 13.027-4.064 16-10-1.407-2.81-3.504-5.2-6.062-6.938z"
    />
  </symbol>

  <symbol
    id="logo"
    viewBox="0 0 276.000000 72.000000"
    xmlns="http://www.w3.org/2000/svg"
    preserveAspectRatio="xMidYMid meet"
  >
    <g transform="translate(0.000000,72.000000) scale(0.100000,-0.100000)" stroke="none">
      <path
        d="M995 680 c-3 -5 -15 -10 -26 -10 -18 0 -19 -10 -19 -295 0 -254 2
          -296 15 -301 8 -4 15 -15 15 -25 0 -13 7 -19 21 -19 15 0 19 -5 15 -15 -4 -13
          10 -15 92 -15 91 0 98 1 107 23 9 19 7 24 -20 39 l-30 17 33 11 c54 20 36 30
          -49 30 l-82 0 7 283 c6 259 5 280 -9 262 -16 -20 -16 -20 -35 3 -20 25 -26 27
          -35 12z"
      />
      <path
        d="M1805 586 c-5 -2 -22 -7 -36 -10 -21 -5 -28 -13 -32 -42 -4 -21 -3
          -42 1 -48 9 -15 9 -8 10 -233 2 -201 2 -202 25 -205 14 -2 23 -11 25 -27 4
          -22 6 -23 55 -17 80 11 118 23 169 55 60 38 83 74 83 129 0 36 -5 48 -31 72
          -17 15 -38 30 -45 32 -11 4 -11 9 3 24 46 52 61 149 33 204 -23 45 -68 63
          -165 67 -47 1 -89 1 -95 -1z m163 -122 c12 -8 22 -25 22 -38 0 -40 -76 -96
          -131 -96 -17 0 -19 7 -19 69 0 46 4 71 13 74 27 11 94 6 115 -9z m-4 -224 c15
          -5 31 -21 38 -34 22 -50 -45 -106 -127 -106 l-35 0 0 65 c0 59 2 67 23 75 30
          12 70 12 101 0z"
        />
      <path
        d="M635 565 c-78 -28 -107 -81 -125 -229 -16 -136 17 -274 75 -312 18
          -12 47 -18 88 -18 84 -1 158 38 187 99 26 54 40 175 30 264 -9 80 -46 166 -72
          166 -9 0 -20 3 -24 7 -4 4 -18 5 -30 2 -20 -5 -24 -2 -24 15 0 17 -6 21 -32
          21 -18 -1 -51 -7 -73 -15z m105 -105 c42 -23 63 -117 49 -219 -13 -88 -33
          -128 -71 -136 -76 -17 -111 35 -111 160 1 155 56 236 133 195z"
      />
      <path
        d="M47 559 c-15 -9 -17 -34 -17 -274 0 -237 6 -305 24 -260 8 21 29 19
          44 -5 23 -38 32 -10 32 103 0 116 6 157 21 157 6 0 45 -55 88 -122 113 -176
          102 -164 133 -144 22 15 27 15 38 1 7 -8 16 -12 21 -9 12 7 12 554 -1 554 -5
          0 -14 -9 -20 -20 -14 -26 -36 -26 -50 0 -23 42 -30 5 -30 -151 0 -120 -3 -160
          -12 -157 -6 2 -50 74 -98 159 -67 121 -90 154 -106 154 -12 0 -27 5 -35 12
          -10 8 -20 8 -32 2z"
        />
      <path
        d="M1426 561 c-3 -5 -14 -7 -24 -4 -15 4 -22 -18 -54 -174 -69 -332 -72
          -352 -66 -358 4 -4 15 -2 25 3 13 8 22 7 34 -4 15 -13 18 -9 33 46 15 51 20
          60 40 60 13 0 50 3 83 6 l59 6 15 -53 c10 -34 20 -53 28 -51 7 1 18 -2 25 -7
          7 -6 22 -7 35 -4 17 4 21 11 17 27 -2 11 -23 125 -46 251 -23 127 -43 237 -45
          245 -7 23 -63 22 -70 -1 -8 -24 -17 -24 -40 1 -19 21 -40 26 -49 11z m93 -226
          c11 -49 18 -92 15 -94 -2 -3 -31 -7 -63 -9 l-59 -4 21 100 c14 74 24 102 36
          105 25 6 28 -2 50 -98z"
        />
      <path
        d="M2233 563 c-55 -3 -73 -8 -78 -21 -4 -10 2 -22 17 -33 21 -16 21 -18
          5 -24 -15 -7 -17 -27 -17 -226 l0 -219 25 0 c18 0 25 -5 25 -19 0 -18 6 -19
          98 -14 53 3 98 7 100 8 1 1 0 21 -4 44 l-7 41 -63 0 -64 0 0 69 0 68 38 7 c20
          3 49 6 65 6 17 0 27 5 27 15 0 8 -5 15 -11 15 -7 0 -9 10 -5 25 6 25 5 25 -54
          25 l-60 0 0 65 0 64 60 7 c63 7 87 21 51 31 -26 7 -27 15 -1 31 11 7 20 19 20
          27 0 16 1 16 -167 8z"
        />
      <path
        d="M2583 541 c-22 -24 -24 -25 -37 -8 -8 10 -20 15 -30 11 -14 -5 -16
          -34 -16 -255 l0 -249 25 0 c18 0 25 -5 25 -20 0 -18 7 -20 58 -20 82 0 130 10
          137 28 4 10 -1 22 -11 29 -14 10 -15 15 -4 28 11 13 5 15 -53 15 -36 0 -68 3
          -70 7 -2 5 -1 107 3 228 3 121 4 223 1 226 -3 4 -16 -5 -28 -20z"
      />
    </g>
  </symbol>
</svg>
